<svg version="1.1" id="Layer_1" xmlns="http://www.w3.org/2000/svg" xmlns:xlink="http://www.w3.org/1999/xlink" x="0px" y="0px"
	 width="100%" viewBox="0 0 1024 1024" enable-background="new 0 0 1024 1024" xml:space="preserve" alt="Logo">
<path fill="#FFFFFF" opacity="1.000000" stroke="none" 
	d="
M238.638931,785.742065 
	C246.443787,784.472229 253.903000,783.422546 261.493225,782.354492 
	C263.902954,772.520264 270.132843,764.722595 279.038208,759.723572 
	C286.479248,755.546509 294.607849,752.233948 302.820251,749.911804 
	C308.789368,748.223999 307.868713,743.841187 308.935699,740.045532 
	C309.322815,738.668518 308.997955,737.091370 308.997955,735.347229 
	C286.344513,731.419617 264.620758,724.537903 244.041245,714.765381 
	C229.873978,708.037903 216.633362,699.352478 203.010208,691.487427 
	C184.950485,681.061218 169.041183,667.654236 154.224258,653.286682 
	C139.891785,639.388855 127.099838,623.863953 114.066940,608.679749 
	C107.004395,600.451294 100.292290,591.803040 94.419289,582.700745 
	C85.802383,569.345764 77.923134,555.503662 70.010147,541.708191 
	C57.143005,519.275696 47.167473,495.501404 39.164959,470.982269 
	C34.272552,455.992310 30.501060,440.605835 26.862425,425.246704 
	C23.775305,412.215607 21.111986,399.040009 19.169205,385.795135 
	C17.459526,374.139435 16.613829,362.316071 16.110641,350.535828 
	C15.606845,338.741333 15.367967,326.865936 16.160038,315.103271 
	C17.149363,300.411255 18.886450,285.733826 21.095472,271.170654 
	C22.987711,258.695923 25.530729,246.270233 28.676662,234.052200 
	C30.889416,225.458450 34.454731,217.194580 37.673401,208.883057 
	C41.306026,199.502594 44.482773,189.835556 49.203808,181.013443 
	C55.641609,168.983246 63.055176,157.436630 70.620644,146.061966 
	C75.730148,138.379837 81.481361,131.051987 87.570580,124.114235 
	C93.797546,117.019539 100.654503,110.456100 107.472290,103.906395 
	C119.388359,92.458878 133.082565,83.391266 147.735809,75.964020 
	C157.940567,70.791557 168.474258,65.933372 179.362778,62.549332 
	C188.237930,59.791031 197.816940,58.954498 207.159851,58.162212 
	C213.627594,57.613750 218.758835,63.807602 216.634811,68.700645 
	C215.309433,71.753891 213.428909,74.744354 211.158798,77.163673 
	C208.393997,80.110184 205.087631,82.606194 201.791840,84.987465 
	C180.398697,100.444359 163.663269,119.565430 154.694870,144.766922 
	C149.802826,158.513687 147.162003,172.839401 147.414764,187.329697 
	C147.659515,201.359390 149.197403,215.304062 153.293167,229.031372 
	C158.912628,247.865509 166.710938,265.481598 178.700516,280.982178 
	C184.979752,289.100250 192.141068,296.629974 199.536682,303.770111 
	C213.099335,316.864288 228.905121,326.861023 246.088882,334.488037 
	C262.781219,341.896881 280.218872,346.331146 298.646667,347.114349 
	C316.876770,347.889191 334.384735,345.413300 351.039703,337.953217 
	C357.145569,335.218292 362.778076,331.429626 368.875427,328.672058 
	C381.506134,322.959686 390.592133,312.921661 400.752686,304.029266 
	C416.450928,290.290375 433.720764,278.911194 453.239563,270.788574 
	C476.457092,261.126831 500.466553,256.897919 525.320801,258.170654 
	C543.622925,259.107849 561.547791,262.854462 578.852722,269.332855 
	C600.292786,277.359253 620.125671,288.192322 637.936768,302.545074 
	C646.359680,309.332581 654.690491,316.338837 662.314148,323.991913 
	C677.976135,339.714355 691.857666,356.949890 702.984070,376.232361 
	C709.962219,388.325958 717.061646,400.387665 723.265381,412.881439 
	C733.412781,433.317291 741.040100,454.816345 746.815002,476.852753 
	C750.627197,491.399567 753.713379,506.226532 755.804810,521.113464 
	C759.048523,544.203125 760.130737,567.507690 758.571289,590.822815 
	C757.726990,603.445557 756.448669,616.052856 754.890442,628.608032 
	C754.203735,634.141174 752.468201,639.565430 750.946594,644.965210 
	C750.113464,647.922058 755.020691,654.302124 758.228149,653.994324 
	C775.543884,652.332520 791.767334,656.124878 807.737915,662.729492 
	C815.872009,666.093323 823.275696,670.111389 830.180359,675.511963 
	C835.567810,679.725952 839.110779,684.148193 837.016541,691.374512 
	C835.894714,695.245667 835.449524,699.383423 833.838501,703.019653 
	C832.582092,705.855286 833.220703,707.507141 835.405212,708.773926 
	C841.647339,712.393799 844.414185,717.243774 842.536133,724.647095 
	C841.925415,727.054749 842.934937,729.873413 843.252441,732.984985 
	C850.142395,732.661255 857.186218,731.947327 864.213562,732.083435 
	C877.098145,732.332947 889.605469,734.476074 901.229553,740.615723 
	C907.705627,744.036316 914.793762,746.381775 921.003296,750.193665 
	C925.088135,752.701294 929.995667,755.771606 928.578308,762.164612 
	C946.122437,761.516846 962.530273,765.304443 978.608521,771.798218 
	C990.720398,776.690063 1001.346741,783.663940 1010.677856,792.465637 
	C1016.969666,798.400452 1021.176392,805.880615 1021.068848,815.167114 
	C1021.012024,820.077942 1021.484497,825.017578 1022.041382,829.907349 
	C1022.806091,836.621887 1017.763550,846.544617 1010.401184,849.212402 
	C1006.948914,850.463318 1003.397400,851.522827 1000.121033,853.136414 
	C998.769470,853.802063 997.310059,855.602295 997.121277,857.046204 
	C996.189392,864.173218 995.960815,871.397522 994.904114,878.501160 
	C994.095276,883.938538 991.287781,888.787842 986.197693,891.152893 
	C975.219482,896.253906 964.306091,901.845032 952.793762,905.361755 
	C936.278748,910.406616 919.172668,910.669495 901.835815,909.230469 
	C879.639587,907.388062 859.489258,899.994995 839.563965,889.846924 
	C836.938599,905.678040 822.311707,905.974670 811.555054,910.694519 
	C804.198120,913.922668 795.674316,914.658569 787.590271,916.023865 
	C774.752869,918.192078 761.805908,919.291260 748.859436,916.985413 
	C738.702576,915.176331 728.318481,913.911987 718.565186,910.764160 
	C707.668457,907.247314 697.285156,902.059692 686.859680,897.209534 
	C683.494568,895.644043 680.757385,893.422546 676.543518,894.121338 
	C666.442444,895.796631 656.384277,895.757202 646.477478,892.306152 
	C645.078735,891.818848 642.359436,893.193237 641.109558,894.516479 
	C631.971375,904.190735 620.486206,909.876587 608.250183,914.291748 
	C586.485046,922.145386 563.815979,924.086304 541.002197,922.816956 
	C520.738770,921.689514 500.666107,918.159790 481.856415,910.146362 
	C474.954742,907.206177 470.198730,907.599854 463.446167,911.356934 
	C453.540192,916.868530 442.075226,919.272461 430.498596,920.054688 
	C425.646576,920.382507 420.849274,921.680237 416.001434,921.865967 
	C411.116180,922.053223 406.198425,921.418640 401.296051,921.124512 
	C395.221832,920.760193 389.134949,920.526489 383.078033,919.969788 
	C368.845154,918.661438 355.247833,914.555603 342.061615,909.370300 
	C335.317871,906.718445 328.997864,902.691040 325.567352,895.200562 
	C313.100494,902.802307 299.651642,907.563660 284.862946,908.011719 
	C275.950928,908.281738 267.013885,909.271423 258.139252,908.852905 
	C245.965652,908.278809 233.761780,907.398865 221.987198,903.532715 
	C213.480820,900.739685 204.803329,898.460571 196.176437,896.044128 
	C187.915588,893.730225 187.027283,890.468445 187.758209,882.328674 
	C188.102020,878.499939 187.232758,874.559814 186.886658,870.672546 
	C186.626373,867.749451 186.067734,864.828064 186.090012,861.909363 
	C186.147568,854.372131 192.193390,850.681030 196.710449,846.047058 
	C197.367416,845.373047 198.302994,844.976929 199.074417,844.404785 
	C199.325333,844.218750 199.464050,843.881531 199.223480,844.220764 
	C198.037384,841.939392 196.146912,839.980408 196.149155,838.023560 
	C196.160065,828.446655 196.478928,818.856262 197.161118,809.304382 
	C197.316391,807.130493 198.828445,804.359436 200.596878,803.107605 
	C211.901611,795.105408 223.629211,787.838440 237.796600,785.985168 
	C237.960358,785.963745 238.127640,785.969238 238.638931,785.742065 
M162.160965,90.994431 
	C159.673767,92.009735 157.014114,92.733437 154.726471,94.086205 
	C135.366135,105.534546 117.514900,118.815346 101.985504,135.305786 
	C87.480240,150.708710 75.247856,167.685318 66.368141,186.690521 
	C59.143124,202.154205 53.335110,218.388138 48.224209,234.695923 
	C44.389820,246.930649 42.358673,259.771393 40.099346,272.444763 
	C38.548119,281.146149 37.673389,290.001312 37.048401,298.826843 
	C36.113029,312.035492 34.864029,325.300049 35.220352,338.501099 
	C35.613941,353.082703 37.034935,367.712738 39.162861,382.151581 
	C41.687351,399.281281 44.814037,416.380493 48.854523,433.210938 
	C52.398659,447.973846 57.046238,462.531891 62.135471,476.850220 
	C70.339622,499.932220 80.707878,522.116272 92.951469,543.339783 
	C104.002762,562.496399 115.794724,581.236877 130.486786,597.875305 
	C142.025894,610.943054 153.831146,623.796509 165.955933,636.321350 
	C181.322128,652.194458 198.970032,665.296509 217.594666,677.118835 
	C235.539795,688.509827 254.182312,698.576782 274.490295,704.994568 
	C288.859558,709.535645 303.449982,713.534485 318.164520,716.758545 
	C325.452301,718.355347 333.240234,717.783813 340.807037,717.935120 
	C343.711182,717.993225 346.632965,717.039490 349.540894,717.071899 
	C353.460693,717.115601 357.374573,717.873291 361.291534,717.878174 
	C362.520813,717.879761 364.828125,716.408813 364.805054,715.669006 
	C364.669189,711.308289 366.584381,706.702576 363.286926,702.605225 
	C361.698883,700.632019 360.618530,698.223694 359.459930,695.935608 
	C349.121735,675.518799 339.083313,654.944641 333.035309,632.765808 
	C329.012024,618.011902 325.621704,603.084595 321.992065,588.224182 
	C316.847473,567.161316 315.783173,545.614014 315.125885,524.103394 
	C314.492310,503.368103 316.576141,482.768372 319.887360,462.246704 
	C323.212372,441.639618 328.015594,421.417603 335.658142,402.071930 
	C341.598267,387.035553 349.201447,372.656219 356.032593,358.055176 
	C355.622101,358.165558 354.729187,358.372742 353.856659,358.645264 
	C340.086945,362.946075 326.196136,366.651459 311.648346,366.993408 
	C296.871094,367.340759 282.139404,366.703918 267.921600,362.325653 
	C256.125488,358.693146 244.052124,355.398254 232.981583,350.111176 
	C218.310089,343.104340 204.366318,334.464752 192.980225,322.464233 
	C183.862991,312.855011 174.108688,303.716156 166.024078,293.292816 
	C153.994278,277.782990 143.921539,260.846710 138.118866,241.913727 
	C134.450546,229.944687 131.277390,217.725327 129.185776,205.397079 
	C126.687729,190.673203 127.636986,175.810776 129.890366,160.976608 
	C132.321030,144.975403 138.108856,130.252701 146.121246,116.480240 
	C151.217072,107.721062 157.838364,99.849358 164.221146,91.197166 
	C164.352829,90.861839 164.484528,90.526520 164.616211,90.191193 
	C164.052536,90.434158 163.488876,90.677132 162.160965,90.994431 
M302.336151,804.038025 
	C305.638641,805.245605 308.876038,806.689636 312.254974,807.619385 
	C326.211182,811.459839 340.311279,813.400879 354.828064,811.100342 
	C358.876190,810.458801 363.167999,810.578979 367.246246,811.118713 
	C371.435028,811.673157 373.445923,818.055176 371.746948,821.845947 
	C368.401917,829.309387 361.758514,830.673645 355.031128,830.850098 
	C345.342499,831.104187 335.602997,830.655762 325.928284,829.931824 
	C308.290985,828.612000 292.084656,822.438354 276.824341,813.859619 
	C272.301208,811.316895 268.685699,807.204346 264.412140,804.150024 
	C262.791595,802.991821 260.377930,802.014343 258.515381,802.280640 
	C249.200607,803.612488 239.900696,805.152039 230.686142,807.056702 
	C217.219910,809.840332 214.970551,812.841431 214.999619,826.519470 
	C215.002441,827.846191 215.000000,829.172974 215.000000,831.586609 
	C222.547989,833.702271 230.127869,836.297424 237.915497,837.851318 
	C243.503403,838.966309 249.366684,838.737976 255.111435,839.020874 
	C262.185425,839.369202 269.264191,839.863953 276.340454,839.856506 
	C283.548584,839.848877 290.785339,838.804504 297.951263,839.220154 
	C301.376801,839.418823 305.828644,839.680969 307.646759,844.140076 
	C309.254089,848.082336 308.840973,852.244202 305.622955,854.434326 
	C302.520111,856.546204 298.176727,857.939209 294.434418,857.824036 
	C274.024658,857.196594 253.420547,860.505554 233.223251,855.042725 
	C230.008148,854.173218 226.334229,852.706848 223.425980,853.513062 
	C218.597076,854.851685 214.046097,857.532837 209.721130,860.204041 
	C207.602478,861.512573 205.105728,863.911804 204.805161,866.096008 
	C204.232758,870.255554 205.073318,874.618835 205.456696,878.885864 
	C205.493530,879.295959 206.390198,879.785645 206.972153,879.966248 
	C215.685745,882.671143 224.309280,885.772400 233.170593,887.861755 
	C240.407669,889.568115 247.957184,889.903992 255.324478,891.113586 
	C267.820862,893.165222 280.263672,892.345093 292.282623,889.019592 
	C300.204712,886.827637 307.729309,882.935364 315.115906,879.182556 
	C318.846619,877.287109 322.806305,874.595398 324.948944,871.186584 
	C326.927032,868.039734 326.834564,863.674377 331.977600,863.511047 
	C334.164520,863.441650 337.303986,862.215271 338.348480,863.228394 
	C341.353424,866.142883 346.218872,868.144165 344.405487,874.282898 
	C341.075043,885.557068 343.493469,890.717163 352.270294,894.762573 
	C365.399261,900.813843 379.391235,902.374329 393.524323,902.931519 
	C409.665802,903.567871 425.850342,903.468750 441.534637,898.899048 
	C448.186981,896.960815 454.548004,894.022949 461.041443,891.539490 
	C452.264740,889.598938 443.926361,889.194641 435.750732,887.821411 
	C421.167786,885.372009 407.059631,880.877014 393.685608,874.698730 
	C386.290466,871.282410 379.795074,865.913330 372.931549,861.367859 
	C372.621948,861.162781 372.525635,860.372803 372.598602,859.896362 
	C373.001587,857.264221 372.582672,853.596619 374.142822,852.249084 
	C377.004456,849.777466 380.502655,846.979187 385.187653,849.575134 
	C397.961365,856.653015 411.141693,862.948364 425.562714,865.797302 
	C436.524139,867.962769 447.603180,870.226013 458.713409,870.784729 
	C475.901733,871.649231 492.791229,869.634644 507.947113,860.077820 
	C511.860962,857.609863 519.303894,860.717590 521.674988,865.159302 
	C523.011658,867.663330 520.769531,874.959351 517.594727,876.802185 
	C506.344727,883.332397 494.195618,887.229187 481.388885,889.256531 
	C481.564514,889.494202 481.688660,889.851624 481.923126,889.952454 
	C498.696899,897.164551 516.334900,901.205566 534.400208,902.825562 
	C545.048157,903.780457 555.852112,903.062439 566.585083,902.983887 
	C579.022339,902.892883 590.996765,900.233337 602.618958,895.970825 
	C612.933594,892.187805 622.355164,887.174316 628.891479,877.738525 
	C632.534363,872.479858 639.129761,871.126465 645.779053,872.904541 
	C649.934937,874.015869 654.248169,874.538818 659.016052,875.423279 
	C654.554932,869.850220 650.268127,865.032227 651.070496,858.226990 
	C652.162231,848.966980 653.560364,839.730042 655.269470,830.565735 
	C655.649780,828.526184 657.487366,826.174805 659.318848,825.100403 
	C664.530945,822.042847 669.845032,818.777771 675.558594,817.039062 
	C686.145752,813.817261 696.922302,810.544006 707.848816,809.295471 
	C719.378662,807.977966 731.182129,808.761780 742.854614,809.066040 
	C754.892151,809.379761 766.605408,811.274841 777.611450,816.808044 
	C783.881042,819.960144 785.432312,822.999756 782.532104,829.999573 
	C781.351929,832.848022 773.501648,835.238770 770.053467,834.035706 
	C758.542114,830.019287 746.682373,827.338257 734.500488,827.112549 
	C723.612427,826.910767 712.643372,827.065063 701.830078,828.202881 
	C694.083618,829.017944 686.420166,831.360657 678.965210,833.778748 
	C676.574036,834.554443 674.231750,837.439819 673.192505,839.916260 
	C671.963562,842.844849 672.425476,846.433838 671.697876,849.632690 
	C670.358154,855.523071 670.751099,860.874451 675.609680,865.063965 
	C678.809753,867.823364 682.150391,870.426819 685.508606,872.994751 
	C705.891602,888.581299 729.396484,895.858582 754.566589,897.820251 
	C764.392212,898.585938 774.394104,897.610291 784.281189,896.927795 
	C795.482788,896.154541 806.052673,892.617981 816.137878,887.848877 
	C818.124146,886.909607 820.019775,884.491821 820.706543,882.354126 
	C822.226562,877.622925 823.295410,872.679016 823.909729,867.742432 
	C824.599731,862.197876 828.645203,859.193237 832.810425,859.429626 
	C836.308105,859.628113 840.975220,862.859131 842.597595,866.037476 
	C844.336670,869.444336 846.633606,871.293213 849.473816,872.767761 
	C867.038879,881.886963 885.333374,888.298218 905.319214,890.235352 
	C918.975952,891.559143 932.224731,890.380066 945.217041,887.108765 
	C954.928040,884.663696 964.240601,880.500549 973.544678,876.653076 
	C976.553955,875.408569 978.783264,873.066101 979.157471,868.907471 
	C979.983948,859.721741 981.680176,850.615112 982.988525,841.471436 
	C983.419495,838.459229 985.161072,837.355896 988.091919,837.468872 
	C989.646301,837.528748 991.235474,837.257629 992.777344,836.967651 
	C999.097229,835.778931 1002.625977,832.263977 1002.004211,828.103699 
	C1001.523010,824.884277 1000.568909,821.479553 1001.150391,818.408081 
	C1002.552185,811.002808 998.395508,806.445557 993.343689,802.958496 
	C986.504578,798.237610 979.292725,793.807251 971.704407,790.472961 
	C955.456360,783.333618 938.626526,779.215576 920.700928,783.950989 
	C913.493469,785.855042 908.037354,781.214355 907.820679,773.508301 
	C907.559143,764.211121 907.559753,764.209778 898.483521,760.094849 
	C898.046204,759.896484 897.564331,759.794800 897.131714,759.588257 
	C878.086487,750.495178 858.266174,748.367188 837.703430,752.993835 
	C832.199707,754.232178 827.091553,751.182617 826.068420,745.427979 
	C825.067078,739.795654 824.399231,734.070190 824.111145,728.359070 
	C823.964966,725.462036 823.407593,723.709045 820.704895,722.103027 
	C814.247742,718.266357 812.720642,714.254639 814.182983,706.623291 
	C814.871460,703.030151 816.473450,699.621643 817.427490,696.066650 
	C818.170166,693.299072 818.864014,691.058472 815.429688,688.553284 
	C807.040955,682.434387 797.711792,678.990601 787.883728,676.421021 
	C776.093933,673.338623 764.282959,671.620789 752.039429,673.917908 
	C741.464966,675.901733 741.106018,675.359985 738.758789,664.602234 
	C738.633057,664.025879 737.792908,663.632385 737.571228,663.045715 
	C734.423767,654.716431 727.659729,649.527466 720.668213,645.085754 
	C698.980713,631.307861 675.662903,621.957520 649.555847,620.974426 
	C642.810120,620.720398 639.258789,617.723083 638.050964,610.782654 
	C637.136292,605.526978 634.001282,602.810547 629.390564,601.121460 
	C614.900024,595.812988 599.736450,594.138062 584.551453,594.606812 
	C569.400818,595.074585 554.428406,597.798889 540.138794,603.372009 
	C534.793274,605.456787 530.239197,604.289062 525.740112,600.475037 
	C522.128235,597.413208 517.778748,595.007935 513.413879,593.092163 
	C504.212585,589.053711 494.457703,587.575867 484.381683,587.908569 
	C482.224731,587.979736 479.695862,587.399048 477.915955,586.235291 
	C473.091644,583.080872 470.187286,578.554749 471.051025,572.518921 
	C471.696686,568.007080 469.612396,565.563293 465.760071,563.967590 
	C461.031860,562.009033 456.067505,560.409058 451.741211,557.773987 
	C449.289795,556.280945 446.173798,552.851501 446.399139,550.598389 
	C446.928467,545.305847 444.692169,543.623840 440.408783,541.899658 
	C425.905029,536.061584 410.880829,534.940552 395.520325,535.996826 
	C389.093262,536.438782 387.210388,538.880249 388.066833,545.334412 
	C389.445160,555.721252 390.129700,566.235779 392.136841,576.494995 
	C394.913696,590.688416 398.605530,604.704834 402.053497,618.760742 
	C402.296051,619.749634 403.652069,620.987976 404.668152,621.182861 
	C413.707397,622.916077 422.776703,624.500549 431.856628,626.011963 
	C446.325165,628.420288 460.705841,626.980042 474.971039,624.429626 
	C479.826721,623.561523 484.635223,622.324951 487.891663,626.903015 
	C492.109863,632.833252 488.583038,641.619995 481.516724,642.912537 
	C472.432220,644.574158 463.266541,646.526184 454.092896,646.775696 
	C443.286987,647.069641 432.432709,645.711792 421.604614,644.991638 
	C418.119080,644.759827 414.650085,644.279053 411.023132,643.896240 
	C411.023132,645.076416 410.849823,645.660095 411.048309,646.058411 
	C417.201202,658.406738 423.444061,670.710693 429.538055,683.087769 
	C431.152740,686.367249 433.491425,687.072449 437.008209,687.144409 
	C442.166168,687.249939 447.377686,687.993713 452.430969,689.089844 
	C458.059052,690.310608 458.408844,695.627075 458.717834,699.904480 
	C458.934509,702.904297 455.714935,703.981201 452.831573,705.255737 
	C448.279480,707.267883 444.169495,706.447510 439.587311,706.206482 
	C422.428497,705.303711 405.243408,705.492920 388.459869,709.983704 
	C386.810699,710.424988 384.652588,711.825195 384.193390,713.251343 
	C383.264282,716.136780 383.036194,719.353577 383.118011,722.417786 
	C383.164429,724.157227 383.993927,726.225769 385.160797,727.527649 
	C392.004333,735.162903 400.914154,739.749023 410.199280,743.598572 
	C419.825989,747.589722 429.565399,751.367493 440.125092,752.056091 
	C446.835144,752.493652 453.590424,752.421265 460.262939,753.149719 
	C462.559448,753.400452 466.033630,754.964600 466.556519,756.669067 
	C467.455627,759.600037 470.551605,763.342163 467.028839,766.255127 
	C464.143951,768.640686 460.530670,771.664917 457.203308,771.710571 
	C447.268799,771.846924 437.007599,771.968567 427.434570,769.714783 
	C407.352020,764.986694 388.408264,757.202881 372.924072,742.765442 
	C370.959717,740.933838 368.630951,738.364929 366.336823,738.216919 
	C357.881622,737.671204 349.359802,737.740417 340.882446,738.072754 
	C332.362793,738.406799 325.786438,746.013123 325.996307,754.603943 
	C326.127014,759.954834 322.303650,764.519165 317.150513,766.077820 
	C309.215790,768.477905 300.895630,770.311462 293.648071,774.116882 
	C281.436768,780.528381 280.599854,781.350098 281.394440,794.175110 
	C288.013184,797.403931 294.774536,800.702271 302.336151,804.038025 
M673.000977,465.573303 
	C670.998840,461.029175 669.045715,456.462708 666.986267,451.944672 
	C656.672668,429.318878 643.787598,408.261047 627.130798,389.778473 
	C610.083984,370.863220 590.426453,355.182404 566.666199,345.313446 
	C553.933838,340.024963 540.714355,336.325775 526.829041,336.082123 
	C519.424561,335.952179 511.808716,335.726410 504.639679,337.225067 
	C494.510529,339.342529 484.114105,341.796997 474.888855,346.281647 
	C456.458710,355.241028 441.567719,368.843964 429.121857,385.257721 
	C413.617493,405.705170 403.387970,428.594086 397.150055,453.241241 
	C393.947235,465.896179 392.067932,478.910522 390.064178,491.835846 
	C388.740051,500.376740 388.257904,509.048187 387.388397,517.765320 
	C393.486053,517.107971 398.614899,516.205078 403.764557,516.064636 
	C420.026215,515.620850 435.919800,517.874146 450.614197,525.136536 
	C457.358978,528.470032 464.661316,532.065674 465.097809,541.443481 
	C465.133118,542.202454 466.343018,543.114502 467.207703,543.592957 
	C472.367981,546.448120 477.467468,549.457947 482.818970,551.910645 
	C488.627869,554.572937 490.696625,559.314819 490.913391,565.083252 
	C491.030365,568.196838 492.206909,568.880554 495.105438,569.076904 
	C509.183411,570.030762 522.322876,574.209351 534.002686,582.143433 
	C537.034119,584.202637 539.398865,583.288574 541.923279,582.486206 
	C561.621521,576.225525 581.645874,573.903870 602.311096,575.871521 
	C615.019470,577.081543 627.329285,579.655151 639.174255,584.134766 
	C647.849060,587.415527 656.390625,591.451538 656.224609,601.663940 
	C669.137817,605.201538 681.344666,608.545654 693.548645,611.888977 
	C694.034119,605.818054 694.914246,599.779114 694.910645,593.740723 
	C694.904724,583.657715 694.786499,573.534546 693.890076,563.502075 
	C692.674377,549.894836 690.884644,536.328247 688.971497,522.796509 
	C686.213806,503.291840 680.199890,484.662415 673.000977,465.573303 
M714.000122,550.311768 
	C717.564209,574.113098 716.084961,597.934692 713.871582,621.192261 
	C720.861084,625.214233 727.298035,628.918335 734.574890,633.105652 
	C736.096436,619.181213 738.559204,605.910339 738.758179,592.605591 
	C739.042114,573.618835 738.117615,554.576782 736.837402,535.617249 
	C736.027100,523.615417 734.544006,511.500275 731.729004,499.829956 
	C727.591064,482.674683 722.651794,465.643463 716.874207,448.968109 
	C706.593872,419.297211 691.960754,391.858215 672.583435,366.973175 
	C661.551270,352.805206 649.806152,339.437347 636.224731,327.622528 
	C619.525024,313.095062 601.481262,300.808533 581.118408,291.989594 
	C562.109985,283.757202 542.322449,278.867859 521.619751,278.038635 
	C505.297150,277.384796 489.211914,279.807526 473.643219,284.315033 
	C456.829712,289.182953 441.103882,296.947449 426.818481,307.108765 
	C412.494202,317.297729 399.284607,329.037689 388.742340,343.091034 
	C380.217804,354.454620 373.038422,366.796875 366.431702,379.560272 
	C357.236053,397.325195 350.578369,415.947601 345.314453,434.978424 
	C341.194946,449.871979 338.790558,465.395172 337.227966,480.801270 
	C335.294220,499.866699 334.184814,519.003113 335.746277,538.316040 
	C337.119904,555.305115 338.534027,572.248291 342.136902,588.873169 
	C345.347321,603.687500 349.052643,618.450989 353.609467,632.899414 
	C357.346252,644.747803 362.340668,656.239685 367.376007,667.624878 
	C370.936646,675.675659 375.451965,683.308838 379.672577,691.056763 
	C380.153839,691.940369 381.608704,693.038818 382.402130,692.893188 
	C391.493561,691.224915 400.544250,689.334778 409.653717,687.494080 
	C409.091980,686.297485 408.535614,685.134766 407.997925,683.963501 
	C400.776184,668.231812 392.440399,652.897461 386.642731,636.657166 
	C380.508759,619.474854 375.953918,601.601807 372.281219,583.707825 
	C369.310394,569.233276 367.671173,554.307495 367.263397,539.531616 
	C366.794861,522.554382 367.932587,505.492981 369.154663,488.524475 
	C369.849792,478.872711 371.249176,469.092896 373.854156,459.797485 
	C378.256805,444.087494 383.572754,428.611115 389.046936,413.229492 
	C395.555908,394.940247 406.215179,378.826935 418.611755,364.204773 
	C432.846130,347.414764 449.947174,333.709167 470.569733,325.184174 
	C483.568420,319.810760 497.120697,316.005219 511.195312,315.093689 
	C529.772522,313.890564 547.839294,316.544769 565.531616,322.770599 
	C587.536316,330.513916 606.510498,343.059723 623.673950,358.376129 
	C636.675354,369.978424 647.967896,383.268005 658.081421,397.534790 
	C674.257385,420.353912 687.254211,444.872131 696.466125,471.226593 
	C701.166260,484.673157 704.719177,498.583862 707.851685,512.496155 
	C710.585022,524.635620 712.001587,537.071594 714.000122,550.311768 
z"/>
<path fill="#FFFFFF" opacity="1.000000" stroke="none" 
	d="
M550.331909,738.117554 
	C562.650818,738.813354 574.646912,740.591736 586.437073,739.686829 
	C599.885864,738.654602 613.280396,735.760498 625.785339,730.035339 
	C630.149658,728.037292 637.805542,730.247559 639.998230,734.012512 
	C642.564392,738.418945 640.971069,742.471375 635.127197,746.411011 
	C634.059570,747.130737 633.064941,748.352844 631.924805,748.505005 
	C625.578308,749.352112 625.198120,754.068298 625.032410,758.847534 
	C624.880066,763.241211 625.000000,767.644287 625.000000,772.505554 
	C636.477112,776.663208 648.774048,779.440857 661.517334,779.971863 
	C672.746216,780.439758 683.987549,781.001038 695.219116,780.921814 
	C712.132690,780.802551 728.891602,778.495850 745.080750,773.763428 
	C754.511047,771.006714 764.289795,768.275635 771.794617,760.887512 
	C774.875977,757.854126 782.406128,763.606018 783.029175,769.097046 
	C783.620789,774.310974 779.429321,776.478455 776.384277,778.752808 
	C764.496887,787.631470 750.890015,792.321228 736.326416,795.193848 
	C723.121155,797.798462 709.942139,799.326355 696.518494,800.202759 
	C677.019165,801.475830 657.863831,800.205322 638.872986,795.977295 
	C629.841736,793.966675 620.918335,791.471741 610.745178,788.891541 
	C599.319580,795.342407 585.929810,800.942139 570.983704,803.189026 
	C553.701965,805.786987 536.920776,804.464417 520.285767,799.888489 
	C516.024109,798.716187 511.931335,796.629822 508.052795,794.445251 
	C503.758972,792.026794 503.146332,785.435608 506.506866,781.974792 
	C512.252380,776.057861 513.465515,775.685181 521.044922,779.054932 
	C535.067200,785.289124 549.603577,785.518860 564.631042,784.330017 
	C577.657227,783.299438 589.435547,778.971985 601.119812,773.896484 
	C603.333679,772.934753 605.376770,771.585815 605.156250,768.113464 
	C604.909729,764.231384 605.864014,760.273010 606.315186,756.170227 
	C590.749512,758.718445 575.861145,760.151794 560.736206,758.106140 
	C550.047913,756.660522 539.169800,756.513000 528.541199,754.777344 
	C523.549927,753.962280 518.676636,751.211182 514.259155,748.505798 
	C511.090790,746.565491 511.667389,742.011597 513.345459,739.897583 
	C515.324585,737.404236 519.251770,734.942017 522.242310,735.048584 
	C531.491028,735.378113 540.696045,736.934692 550.331909,738.117554 
z"/>
<path fill="#FFFFFF" opacity="1.000000" stroke="none" 
	d="
M815.998047,770.019287 
	C818.084167,767.338013 820.138611,765.020081 822.217407,762.674622 
	C827.421631,764.848816 824.578369,767.427063 821.949341,769.423096 
	C819.763611,771.082520 817.058594,772.057922 814.164246,772.622498 
	C814.764954,771.875916 815.365662,771.129272 815.998047,770.019287 
z"/>
</svg>